<svg width="16" height="16" viewBox="0 0 16 16" fill="none" xmlns="http://www.w3.org/2000/svg">
<path d="M15.7495 11.7919V14.1629C15.7504 14.383 15.7052 14.6009 15.6169 14.8026C15.5285 15.0042 15.3989 15.1853 15.2364 15.3341C15.0739 15.4829 14.882 15.5962 14.6731 15.6667C14.4642 15.7372 14.2428 15.7634 14.0232 15.7436C11.5863 15.4793 9.24559 14.6483 7.18901 13.3173C5.27563 12.1038 3.65342 10.4848 2.43758 8.57523C1.09924 6.5134 0.266365 4.16594 0.00642767 1.72301C-0.0133617 1.50446 0.0126639 1.28418 0.0828469 1.07622C0.15303 0.868253 0.265833 0.67715 0.414074 0.515077C0.562315 0.353004 0.742745 0.223512 0.943878 0.134846C1.14501 0.0461806 1.36244 0.000283282 1.58232 7.6625e-05H3.95804C4.34235 -0.00369838 4.71493 0.132125 5.00633 0.38223C5.29773 0.632336 5.48806 0.979657 5.54185 1.35946C5.64212 2.11823 5.82808 2.86325 6.09618 3.5803C6.20273 3.86318 6.22579 4.17062 6.16263 4.46617C6.09947 4.76173 5.95274 5.03303 5.73982 5.24791L4.7341 6.25164C5.86143 8.23028 7.50297 9.86857 9.48554 10.9937L10.4913 9.98993C10.7066 9.77744 10.9784 9.631 11.2745 9.56797C11.5707 9.50493 11.8787 9.52795 12.1622 9.63428C12.8807 9.90185 13.6272 10.0874 14.3874 10.1875C14.7721 10.2417 15.1234 10.4351 15.3746 10.7309C15.6257 11.0267 15.7591 11.4043 15.7495 11.7919Z" fill="white"/>
</svg>
