<svg width="9" height="8" viewBox="0 0 9 8" fill="none" xmlns="http://www.w3.org/2000/svg">
<path d="M3.84181 1.03647C4.22254 0.349372 5.21046 0.349372 5.59119 1.03647L6.11281 1.97781C6.26673 2.2556 6.54346 2.44376 6.85838 2.48476L7.81916 2.60986C8.6748 2.72127 8.99714 3.79133 8.3454 4.35681L7.80763 4.8234C7.53801 5.05734 7.41353 5.41726 7.48102 5.76779L7.62761 6.52916C7.78209 7.33148 6.96132 7.97039 6.22142 7.62377L5.14072 7.1175C4.87193 6.99158 4.56108 6.99158 4.29228 7.1175L3.21158 7.62377C2.47168 7.97039 1.65091 7.33148 1.80539 6.52915L1.95198 5.76779C2.01947 5.41726 1.89499 5.05734 1.62537 4.8234L1.0876 4.35681C0.435863 3.79133 0.7582 2.72127 1.61384 2.60986L2.57462 2.48476C2.88954 2.44376 3.16627 2.2556 3.3202 1.97781L3.84181 1.03647Z" fill="#C4C4C4"/>
</svg>
